<mxfile host="app.diagrams.net" modified="2023-04-26T14:23:01.852Z" agent="Mozilla/5.0 (Macintosh; Intel Mac OS X 10_15_7) AppleWebKit/537.36 (KHTML, like Gecko) Chrome/112.0.0.0 Safari/537.36" etag="LhxDPp1FwIYpfkugl_iF" version="21.2.2" type="github">
  <diagram id="C5RBs43oDa-KdzZeNtuy" name="Page-1">
    <mxGraphModel dx="1038" dy="670" grid="1" gridSize="10" guides="1" tooltips="1" connect="1" arrows="1" fold="1" page="1" pageScale="1" pageWidth="2339" pageHeight="3300" math="0" shadow="0">
      <root>
        <mxCell id="WIyWlLk6GJQsqaUBKTNV-0" />
        <mxCell id="WIyWlLk6GJQsqaUBKTNV-1" parent="WIyWlLk6GJQsqaUBKTNV-0" />
        <mxCell id="1s6K8p0i9m4qC-OMNX9N-7" value="" style="edgeStyle=orthogonalEdgeStyle;rounded=0;orthogonalLoop=1;jettySize=auto;html=1;entryX=0.5;entryY=0;entryDx=0;entryDy=0;entryPerimeter=0;" edge="1" parent="WIyWlLk6GJQsqaUBKTNV-1" source="1s6K8p0i9m4qC-OMNX9N-32" target="1s6K8p0i9m4qC-OMNX9N-30">
          <mxGeometry relative="1" as="geometry">
            <mxPoint x="1309" y="80" as="sourcePoint" />
            <mxPoint x="1309" y="110" as="targetPoint" />
          </mxGeometry>
        </mxCell>
        <mxCell id="1s6K8p0i9m4qC-OMNX9N-31" value="" style="group" vertex="1" connectable="0" parent="WIyWlLk6GJQsqaUBKTNV-1">
          <mxGeometry x="1169" y="120" width="280" height="134" as="geometry" />
        </mxCell>
        <mxCell id="1s6K8p0i9m4qC-OMNX9N-26" value="If..." style="swimlane;fontStyle=0;childLayout=stackLayout;horizontal=1;startSize=20;fillColor=default;horizontalStack=0;resizeParent=1;resizeParentMax=0;resizeLast=0;collapsible=1;marginBottom=0;html=1;" vertex="1" parent="1s6K8p0i9m4qC-OMNX9N-31">
          <mxGeometry y="30" width="280" height="98" as="geometry" />
        </mxCell>
        <mxCell id="1s6K8p0i9m4qC-OMNX9N-27" value="jms.type == CAMEL" style="text;strokeColor=default;fillColor=default;align=left;verticalAlign=top;spacingLeft=4;spacingRight=4;overflow=hidden;rotatable=0;points=[[0,0.5],[1,0.5]];portConstraint=eastwest;whiteSpace=wrap;html=1;" vertex="1" parent="1s6K8p0i9m4qC-OMNX9N-26">
          <mxGeometry y="20" width="280" height="26" as="geometry" />
        </mxCell>
        <mxCell id="1s6K8p0i9m4qC-OMNX9N-28" value="consume.from.weblogic == YES" style="text;strokeColor=default;fillColor=default;align=left;verticalAlign=top;spacingLeft=4;spacingRight=4;overflow=hidden;rotatable=0;points=[[0,0.5],[1,0.5]];portConstraint=eastwest;whiteSpace=wrap;html=1;" vertex="1" parent="1s6K8p0i9m4qC-OMNX9N-26">
          <mxGeometry y="46" width="280" height="26" as="geometry" />
        </mxCell>
        <mxCell id="1s6K8p0i9m4qC-OMNX9N-29" value="wls.destination.type == TOPIC" style="text;strokeColor=default;fillColor=default;align=left;verticalAlign=top;spacingLeft=4;spacingRight=4;overflow=hidden;rotatable=0;points=[[0,0.5],[1,0.5]];portConstraint=eastwest;whiteSpace=wrap;html=1;" vertex="1" parent="1s6K8p0i9m4qC-OMNX9N-26">
          <mxGeometry y="72" width="280" height="26" as="geometry" />
        </mxCell>
        <mxCell id="1s6K8p0i9m4qC-OMNX9N-30" value="" style="strokeWidth=2;html=1;shape=mxgraph.flowchart.decision;whiteSpace=wrap;" vertex="1" parent="1s6K8p0i9m4qC-OMNX9N-31">
          <mxGeometry x="125.52000000000001" width="28.96" height="30" as="geometry" />
        </mxCell>
        <mxCell id="1s6K8p0i9m4qC-OMNX9N-32" value="NEMS&lt;br&gt;Topics" style="shape=parallelogram;html=1;strokeWidth=2;perimeter=parallelogramPerimeter;whiteSpace=wrap;rounded=1;arcSize=12;size=0.23;" vertex="1" parent="WIyWlLk6GJQsqaUBKTNV-1">
          <mxGeometry x="1259" y="20" width="100" height="60" as="geometry" />
        </mxCell>
        <mxCell id="1s6K8p0i9m4qC-OMNX9N-33" value="NEMS&lt;br&gt;Queues" style="shape=parallelogram;html=1;strokeWidth=2;perimeter=parallelogramPerimeter;whiteSpace=wrap;rounded=1;arcSize=12;size=0.23;" vertex="1" parent="WIyWlLk6GJQsqaUBKTNV-1">
          <mxGeometry x="535" y="20" width="100" height="60" as="geometry" />
        </mxCell>
        <mxCell id="1s6K8p0i9m4qC-OMNX9N-34" value="SFF&lt;br&gt;Queues" style="shape=parallelogram;html=1;strokeWidth=2;perimeter=parallelogramPerimeter;whiteSpace=wrap;rounded=1;arcSize=12;size=0.23;" vertex="1" parent="WIyWlLk6GJQsqaUBKTNV-1">
          <mxGeometry x="80" y="20" width="100" height="60" as="geometry" />
        </mxCell>
        <mxCell id="1s6K8p0i9m4qC-OMNX9N-62" value="" style="group" vertex="1" connectable="0" parent="WIyWlLk6GJQsqaUBKTNV-1">
          <mxGeometry x="1149" y="300" width="320" height="210" as="geometry" />
        </mxCell>
        <mxCell id="1s6K8p0i9m4qC-OMNX9N-54" value="" style="verticalLabelPosition=bottom;verticalAlign=top;html=1;shape=card;whiteSpace=wrap;size=20;arcSize=12;" vertex="1" parent="1s6K8p0i9m4qC-OMNX9N-62">
          <mxGeometry width="320" height="210" as="geometry" />
        </mxCell>
        <mxCell id="1s6K8p0i9m4qC-OMNX9N-55" value="From -&amp;gt; weblogic:topic:{destName}&lt;br&gt;&lt;span style=&quot;white-space: pre;&quot;&gt;	&lt;span style=&quot;white-space: pre;&quot;&gt;	&lt;/span&gt;&lt;/span&gt;?jmsMessageType=Text" style="text;html=1;align=left;verticalAlign=middle;resizable=0;points=[];autosize=1;strokeColor=none;fillColor=none;labelBackgroundColor=none;" vertex="1" parent="1s6K8p0i9m4qC-OMNX9N-62">
          <mxGeometry x="20" width="210" height="40" as="geometry" />
        </mxCell>
        <mxCell id="1s6K8p0i9m4qC-OMNX9N-58" value="" style="endArrow=none;html=1;rounded=0;exitX=0;exitY=0.451;exitDx=0;exitDy=0;exitPerimeter=0;entryX=0.995;entryY=0.451;entryDx=0;entryDy=0;entryPerimeter=0;" edge="1" parent="1s6K8p0i9m4qC-OMNX9N-62" source="1s6K8p0i9m4qC-OMNX9N-54" target="1s6K8p0i9m4qC-OMNX9N-54">
          <mxGeometry width="50" height="50" relative="1" as="geometry">
            <mxPoint x="20" y="43.663366336633665" as="sourcePoint" />
            <mxPoint x="70" y="-8.316831683168317" as="targetPoint" />
          </mxGeometry>
        </mxCell>
        <mxCell id="1s6K8p0i9m4qC-OMNX9N-59" value="File -&amp;gt; WeblogicRouteBuilder.java" style="text;html=1;align=left;verticalAlign=middle;resizable=0;points=[];autosize=1;strokeColor=none;fillColor=none;labelBackgroundColor=none;" vertex="1" parent="1s6K8p0i9m4qC-OMNX9N-62">
          <mxGeometry x="20" y="100.84158415841584" width="200" height="30" as="geometry" />
        </mxCell>
        <mxCell id="1s6K8p0i9m4qC-OMNX9N-60" value="" style="endArrow=none;html=1;rounded=0;exitX=0;exitY=0.451;exitDx=0;exitDy=0;exitPerimeter=0;entryX=0.995;entryY=0.451;entryDx=0;entryDy=0;entryPerimeter=0;" edge="1" parent="1s6K8p0i9m4qC-OMNX9N-62">
          <mxGeometry width="50" height="50" relative="1" as="geometry">
            <mxPoint x="2" y="137.22772277227722" as="sourcePoint" />
            <mxPoint x="320" y="137.22772277227722" as="targetPoint" />
          </mxGeometry>
        </mxCell>
        <mxCell id="1s6K8p0i9m4qC-OMNX9N-61" value="To -&amp;gt; disruptor:weblogicBuffer{i}" style="text;html=1;align=left;verticalAlign=middle;resizable=0;points=[];autosize=1;strokeColor=none;fillColor=none;labelBackgroundColor=none;" vertex="1" parent="1s6K8p0i9m4qC-OMNX9N-62">
          <mxGeometry x="20" y="142.42574257425744" width="190" height="30" as="geometry" />
        </mxCell>
        <mxCell id="1s6K8p0i9m4qC-OMNX9N-63" style="edgeStyle=orthogonalEdgeStyle;rounded=0;orthogonalLoop=1;jettySize=auto;html=1;" edge="1" parent="WIyWlLk6GJQsqaUBKTNV-1" source="1s6K8p0i9m4qC-OMNX9N-26" target="1s6K8p0i9m4qC-OMNX9N-54">
          <mxGeometry relative="1" as="geometry" />
        </mxCell>
      </root>
    </mxGraphModel>
  </diagram>
</mxfile>
